# xmcd
#
# Track frame offsets: 
#        150
#        13685
#        25148
#        38605
#        50333
#        63868
#        77128
#        91773
#        117743
#        138800
#        157748
#        185948
#        203040
#        217565
#
# Disc length: 2945 seconds
#
# Revision: 0
# Processed by: cddbd v1.5.2PL0 Copyright (c) Steve Scherf et al.
# Submitted via: ExactAudioCopyFreeDBPlugin 1.0
#
DISCID=ab0b7f0e
DTITLE=Marvin Gaye - The Master 1961-1984 Promotional Sampler
DYEAR=1900
DGENRE=R&B
TTITLE0=How Sweet It Is (To Be Loved By You)
TTITLE1=Hitch Hike
TTITLE2=Ain't That Peculiar
TTITLE3=Chained
TTITLE4=Your Precious Love
TTITLE5=Too Busy Thnking About My Baby
TTITLE6=Mercy Mercy Me (The Ecology)
TTITLE7=You're The Man Pts 1 and 2
TTITLE8=After the Dance
TTITLE9=Got To Give It Up Part 1
TTITLE10=When Did You Stop Loving Me, When DId I Stop Loving You
TTITLE11=I Heard It Through the Grapevine
TTITLE12=The Star Spangled Banner
TTITLE13=When Did You Stop Loving Me, When DId I Stop Loving You
EXTD=
EXTT0=
EXTT1=
EXTT2=
EXTT3=
EXTT4=
EXTT5=
EXTT6=
EXTT7=
EXTT8=
EXTT9=
EXTT10=
EXTT11=
EXTT12=
EXTT13=
PLAYORDER=
